<?xml version="1.0" encoding="iso-8859-1"?>
<!-- Generator: Adobe Illustrator 19.0.0, SVG Export Plug-In . SVG Version: 6.00 Build 0)  -->
<svg version="1.1" id="Capa_1" xmlns="http://www.w3.org/2000/svg" xmlns:xlink="http://www.w3.org/1999/xlink" x="0px" y="0px"
	 viewBox="0 0 512 512" style="enable-background:new 0 0 512 512;" xml:space="preserve" fill="#fff">
<g>
	<g>
		<path d="M473.119,181.538h-18.217L373.335,27.696c-3.881-7.32-12.961-10.105-20.281-6.228c-7.32,3.881-10.108,12.961-6.227,20.281
			l74.116,139.787H93.233L167.349,41.75c3.881-7.32,1.093-16.4-6.227-20.281c-7.319-3.881-16.4-1.093-20.281,6.228L59.274,181.538
			H38.881C17.442,181.538,0,198.979,0,220.419C0,241.858,17.442,259.3,38.881,259.3h1.079c0.033,0.214,0.058,0.429,0.096,0.643
			L71.34,435.358c5.883,32.984,34.47,56.924,67.974,56.924H374.86c33.504,0,62.092-23.94,67.974-56.924l31.284-175.414
			c0.04-0.223,0.067-0.447,0.101-0.67c20.931-0.588,37.78-17.785,37.78-38.854C512,198.979,494.558,181.538,473.119,181.538z
			 M191.869,441.258c-0.843,0.142-1.682,0.21-2.509,0.21c-7.19,0-13.541-5.185-14.774-12.512l-22.124-131.351
			c-1.376-8.17,4.131-15.909,12.301-17.285c8.162-1.374,15.909,4.131,17.285,12.302l22.124,131.351
			C205.546,432.143,200.039,439.882,191.869,441.258z M270.353,426.465c0,8.285-6.717,15.001-15.001,15.001
			c-8.285,0-15.001-6.717-15.001-15.001V295.113c0-8.285,6.717-15.001,15.001-15.001c8.285,0,15.001,6.717,15.001,15.001V426.465z
			 M357.198,297.605l-22.124,131.351c-1.234,7.327-7.585,12.512-14.774,12.512c-0.828,0-1.666-0.068-2.509-0.21
			c-8.17-1.376-13.677-9.115-12.301-17.285l22.124-131.351c1.376-8.171,9.124-13.669,17.285-12.302
			C353.066,281.696,358.574,289.435,357.198,297.605z"/>
	</g>
</g>
<g>
</g>
<g>
</g>
<g>
</g>
<g>
</g>
<g>
</g>
<g>
</g>
<g>
</g>
<g>
</g>
<g>
</g>
<g>
</g>
<g>
</g>
<g>
</g>
<g>
</g>
<g>
</g>
<g>
</g>
</svg>
